<?xml version="1.0" standalone="no"?><!DOCTYPE svg PUBLIC "-//W3C//DTD SVG 1.1//EN" "http://www.w3.org/Graphics/SVG/1.1/DTD/svg11.dtd"><svg width="100%" height="100%" viewBox="0 0 256 256" version="1.1" xmlns="http://www.w3.org/2000/svg" xmlns:xlink="http://www.w3.org/1999/xlink" xml:space="preserve" style="fill-rule:evenodd;clip-rule:evenodd;stroke-linejoin:round;stroke-miterlimit:1.41421;"><path id="bg_shape" d="M256.431,64.2678c0,-35.3402 -28.6489,-63.9891 -63.9891,-63.9891l-127.978,0c-35.3402,0 -63.9891,28.6489 -63.9891,63.9891l0,127.978c0,35.3402 28.6489,63.9891 63.9891,63.9891l127.978,0c35.3402,0 63.9891,-28.6489 63.9891,-63.9891l0,-127.978Z" style="fill:#fff;"/><g id="StickyAdmin"><path id="shape" d="M192.097,63.9776c0,66.8564 -53.828,127.965 -128.215,127.965c0,0 46.9615,-17.2219 45.6231,-56.601c-0.787283,-23.1625 -16.5791,-34.5228 -29.4976,-43.7048c-15.2261,-10.822 -12.5825,-27.6588 10.78,-27.6588l101.31,0l0.000160587,-0.000160587ZM138.321,156.883c28.0598,-22.5285 40.0757,-53.6267 43.5062,-74.4243l-63.5466,0l-6.69961,12.5293c2.28108,2.56418 4.57939,5.53865 6.69961,8.93885l14.3819,-2.48462c3.67542,7.21342 6.19257,14.9604 7.45903,22.9565l-12.6955,6.24647c0.365725,1.65879 0.552047,9.53494 0.155072,11.7213l12.5404,6.17017c-0.446196,2.81717 -1.04763,5.60341 -1.8005,8.34628l-2.4891e-05,5.62055e-05Z" style="fill:url(#tag1);"/><path id="shadows" d="M132.521,172.123c-8.15992,5.32383 -18.9386,10.1206 -25.5933,12.3466c0,0 18.4992,-15.1442 20.6184,-42.1223l4.28219,2.16482c-2.73256,16.7868 -9.12593,26.5736 -9.12593,26.5736l9.85419,0.963636c2.54923,-5.30229 4.52709,-10.6155 5.76583,-15.1695l3.68413,-3.06143c-0.899561,5.12656 -2.69118,10.5739 -5.21259,15.5322c-1.54018,1.10105 -4.30419,2.83742 -4.30419,2.83742l0.031367,-0.0651012l-4.33585e-06,7.94907e-05ZM118.283,103.901c4.8386,7.52517 7.80222,16.5255 9.21224,26.7482l3.92828,-1.93489c-1.18001,-8.91323 -3.87051,-17.5356 -8.65436,-25.6051l-4.48614,0.791742l-1.60587e-05,8.8323e-06ZM181.859,82.4135l8.90111,0c-1.80645,10.3572 -3.43911,16.4852 -6.33402,24.8978c1.65608,-18.1858 -1.16014,-22.4034 -2.56707,-24.8978l-1.60587e-05,0ZM111.546,94.9865c-7.74359,-8.88272 -14.9409,-12.5289 -14.9409,-12.5289l21.6767,0l-6.73581,12.5289l-2.40881e-05,0Z" style="fill:#000;fill-opacity:0.247059;"/></g><defs><linearGradient id="tag1" x1="0" y1="0" x2="1" y2="0" gradientUnits="userSpaceOnUse" gradientTransform="matrix(0.161628,127.283,-127.283,0.161628,69.7845,64.8097)"><stop offset="0%" style="stop-color:#93abf3;stop-opacity:1"/><stop offset="51%" style="stop-color:#b393d9;stop-opacity:1"/><stop offset="100%" style="stop-color:#ea74b3;stop-opacity:1"/></linearGradient></defs></svg>